<svg width="36" height="41" viewBox="0 0 36 41" fill="none" xmlns="http://www.w3.org/2000/svg">
<path d="M25.0052 17.5831C23.062 17.5822 21.1489 18.1276 19.4611 19.1637L19.5442 10.2575C19.5696 7.5394 18.5744 4.93166 16.7777 3.008C14.981 1.08433 12.5299 0.00231823 9.9636 -1.13904e-05C7.39731 -0.00234101 4.92604 1.0752 3.09347 2.99557C1.26089 4.91594 0.217105 7.52183 0.191742 10.24L0.000479601 30.7375C-0.0195061 32.8263 0.563673 34.866 1.67189 36.5832C2.7801 38.3004 4.36042 39.6132 6.20112 40.3456C8.04181 41.078 10.055 41.1951 11.9709 40.6812C13.8868 40.1673 15.614 39.047 16.921 37.4703C18.1829 38.8523 19.7508 39.8791 21.485 40.4593C23.2192 41.0394 25.0659 41.155 26.8605 40.7955C28.655 40.4361 30.3418 39.6129 31.7705 38.3992C33.1992 37.1856 34.3254 35.6191 35.0488 33.8395C35.7723 32.0599 36.0704 30.1224 35.9167 28.1995C35.763 26.2767 35.1623 24.4283 34.168 22.8189C33.1737 21.2096 31.8168 19.8894 30.2181 18.9759C28.6194 18.0623 26.8285 17.5839 25.0052 17.5831ZM24.9778 20.5113C26.936 20.5167 28.8231 21.2551 30.3056 22.5961C31.788 23.937 32.7704 25.7942 33.079 27.8393L16.74 27.8245C17.0868 25.78 18.1039 23.9246 19.6113 22.5863C21.1188 21.2481 23.0196 20.5131 24.9778 20.5113ZM2.95638 10.2425C2.9745 8.30096 3.72005 6.43961 5.02904 5.06791C6.33802 3.69622 8.10321 2.92655 9.93628 2.92821C11.7693 2.92987 13.5201 3.70274 14.8035 5.07679C16.0869 6.45083 16.7977 8.3135 16.7796 10.255L16.6976 19.0397L2.87441 19.0271L2.95638 10.2425ZM9.6084 38.0669C7.77603 38.0629 6.02652 37.2893 4.74362 35.9157C3.46073 34.5422 2.7492 32.6809 2.76512 30.74L2.84709 21.9554L16.3454 21.9676C14.9411 23.7874 14.0829 26.0079 13.8826 28.34C13.6824 30.6722 14.1493 33.0078 15.2226 35.0427C14.5754 35.979 13.729 36.7413 12.753 37.267C11.7771 37.7928 10.6993 38.0669 9.6084 38.0669ZM24.8139 38.0807C22.8557 38.0753 20.9686 37.3369 19.4862 35.9959C18.0037 34.655 17.0214 32.7978 16.7127 30.7527L33.0517 30.7675C32.7049 32.812 31.6879 34.6674 30.1804 36.0057C28.673 37.3439 26.7721 38.0789 24.8139 38.0807Z" fill="white"/>
</svg>
